<svg version="1.1" id="Layer_1" xmlns="http://www.w3.org/2000/svg" xmlns:xlink="http://www.w3.org/1999/xlink" x="0px" y="0px"
	 width="100%" viewBox="0 0 3000 3000" enable-background="new 0 0 3000 3000" xml:space="preserve">
<path fill="#000000" opacity="1.000000" stroke="none" 
	d="
M1308.000000,3002.000000 
	C872.000061,3002.000000 437.000153,3002.000000 2.000175,3002.000000 
	C2.000117,2002.000244 2.000117,1002.000488 2.000058,2.000578 
	C1001.999573,2.000385 2001.999146,2.000385 3001.999023,2.000193 
	C3001.999512,1001.999329 3001.999512,2001.998657 3001.999756,3001.999023 
	C2437.666748,3002.000000 1873.333374,3002.000000 1308.000000,3002.000000 
M1805.314087,1318.303711 
	C1804.767334,1320.869385 1804.102905,1323.416504 1803.698120,1326.004395 
	C1802.833740,1331.530518 1803.601196,1337.950806 1800.992065,1342.425903 
	C1796.262939,1350.536743 1796.153442,1359.364014 1794.101807,1367.896729 
	C1792.521362,1374.469360 1790.647095,1380.971436 1788.948120,1387.337524 
	C1785.729614,1387.483398 1783.747437,1387.651245 1781.765137,1387.651733 
	C1714.440796,1387.667847 1647.116577,1387.668213 1579.792236,1387.669800 
	C1578.459106,1387.669800 1577.122070,1387.586548 1575.793579,1387.661377 
	C1570.597656,1387.954102 1567.936646,1384.247803 1568.203003,1380.343262 
	C1568.824585,1371.234741 1569.705933,1361.918701 1572.281494,1353.219604 
	C1576.454346,1339.125610 1580.295410,1325.043457 1582.418091,1310.481812 
	C1583.214355,1305.018799 1584.642334,1299.631226 1586.048950,1294.279297 
	C1587.028076,1290.553223 1588.809937,1287.022827 1589.628784,1283.272949 
	C1592.566650,1269.817749 1595.124268,1256.279419 1598.057251,1242.823120 
	C1601.562500,1226.741211 1605.306641,1210.711304 1608.944458,1194.658325 
	C1610.011475,1189.949463 1609.728027,1185.043213 1613.535034,1180.909912 
	C1615.510254,1178.765503 1615.597412,1174.730469 1616.184937,1171.485596 
	C1618.758179,1157.270264 1621.023315,1142.996460 1623.795288,1128.821167 
	C1624.710815,1124.138672 1627.145142,1119.770874 1628.304565,1115.114624 
	C1630.841309,1104.928589 1632.922974,1094.630127 1635.352173,1084.416138 
	C1637.013428,1077.431763 1639.059448,1070.538696 1640.715942,1063.553223 
	C1641.623779,1059.724976 1641.685547,1055.671265 1642.811768,1051.924438 
	C1646.645874,1039.167969 1643.425537,1034.647949 1630.510254,1034.275024 
	C1612.279419,1033.748413 1593.955933,1036.072510 1575.808350,1032.425781 
	C1572.938965,1031.849243 1569.820923,1032.297241 1566.839111,1032.537231 
	C1560.598511,1033.039795 1554.372314,1034.248535 1548.140015,1034.250610 
	C1275.511597,1034.339844 1002.883240,1034.329102 730.254822,1034.329712 
	C650.937195,1034.329834 571.619507,1034.337158 492.301849,1034.307739 
	C486.597351,1034.305542 479.403076,1033.386597 477.685883,1039.744995 
	C476.542450,1043.978760 479.631256,1049.682495 481.705109,1054.336426 
	C482.961365,1057.155518 486.161591,1059.038086 488.028748,1061.667847 
	C494.708771,1071.076660 500.646667,1081.068359 507.900299,1089.998901 
	C515.541199,1099.406372 523.122009,1108.782715 529.616028,1119.029175 
	C531.386658,1121.822876 533.724670,1124.250854 535.703979,1126.919556 
	C545.128540,1139.626831 554.562561,1152.327515 563.906555,1165.093872 
	C570.163574,1173.642700 576.146423,1182.394165 582.490112,1190.876831 
	C588.393799,1198.771118 594.466675,1206.549805 600.725403,1214.165283 
	C611.284302,1227.013428 616.785156,1245.032959 636.218506,1248.945312 
	C638.353638,1249.375244 640.140686,1251.379883 642.178711,1252.489624 
	C644.208801,1253.595093 646.272095,1255.096313 648.457947,1255.384766 
	C662.178589,1257.195190 675.935608,1260.104004 689.684143,1260.123169 
	C901.321899,1260.418823 1112.960205,1260.326172 1324.598389,1260.323608 
	C1328.845703,1260.323608 1333.093018,1260.323486 1338.803101,1260.323486 
	C1337.624512,1269.679932 1337.195068,1277.877930 1335.466187,1285.791992 
	C1332.105103,1301.177734 1327.826050,1316.360840 1324.302612,1331.714111 
	C1322.383911,1340.074219 1322.953369,1349.471558 1319.267090,1356.831543 
	C1315.412231,1364.527832 1314.028076,1372.328613 1312.372925,1380.327759 
	C1311.637085,1383.884277 1311.363159,1387.538452 1310.584351,1391.083496 
	C1306.568970,1409.363037 1302.571289,1427.648071 1298.330322,1445.875977 
	C1296.318726,1454.522217 1293.501709,1462.982544 1291.533447,1471.637085 
	C1286.711304,1492.841064 1282.189453,1514.113403 1277.508057,1535.349487 
	C1275.158691,1546.006592 1272.842041,1556.673584 1270.267212,1567.276855 
	C1269.346436,1571.068604 1267.285645,1574.596313 1266.478394,1578.400146 
	C1264.098267,1589.616333 1261.864746,1600.873535 1259.982422,1612.182861 
	C1257.444458,1627.431641 1251.015137,1641.750000 1249.981812,1657.416748 
	C1249.447266,1665.522583 1248.198608,1674.184937 1244.677368,1681.314209 
	C1241.386841,1687.976440 1240.482666,1694.971802 1238.616943,1701.712524 
	C1234.374023,1717.042725 1234.144409,1733.132690 1228.224243,1748.408081 
	C1222.026123,1764.401123 1222.107544,1782.204346 1216.118286,1798.665405 
	C1211.805298,1810.519165 1210.749023,1823.568359 1208.360352,1836.107300 
	C1207.195923,1842.218994 1207.288208,1848.775513 1205.032104,1854.419434 
	C1202.482666,1860.797363 1200.895874,1867.171875 1199.420410,1873.825195 
	C1197.196655,1883.853638 1198.728760,1895.002197 1191.361816,1903.696167 
	C1190.603516,1904.590820 1190.607422,1906.173828 1190.366333,1907.457886 
	C1187.511108,1922.665039 1184.624634,1937.866699 1181.878296,1953.093506 
	C1181.293091,1956.338013 1182.478516,1960.747070 1180.720947,1962.787354 
	C1173.383545,1971.305298 1174.090210,1981.010254 1174.687622,1990.608643 
	C1181.285645,1994.319580 1187.121094,1997.894287 1195.034790,1997.857788 
	C1264.357300,1997.537598 1333.682007,1997.697266 1403.005859,1997.612427 
	C1407.283936,1997.607178 1411.859497,1997.533691 1415.759155,1996.065063 
	C1420.149048,1994.411865 1425.448120,1992.027588 1427.597290,1988.351318 
	C1430.399048,1983.558472 1430.595825,1977.203003 1431.724365,1971.482666 
	C1432.866699,1965.692383 1433.441284,1959.770996 1434.889526,1954.065796 
	C1436.232910,1948.773560 1439.238281,1943.817871 1440.046753,1938.491577 
	C1442.261230,1923.904053 1443.494019,1909.149658 1451.343994,1896.079956 
	C1451.822021,1895.284058 1451.492432,1894.031372 1451.900879,1893.161133 
	C1456.899780,1882.508057 1455.999634,1869.816772 1463.357788,1859.972168 
	C1463.703247,1859.510010 1463.505005,1858.667358 1463.639282,1858.018311 
	C1466.952271,1841.997681 1468.344849,1825.683105 1473.800293,1809.963623 
	C1477.948975,1798.009399 1479.211426,1785.050049 1481.711426,1772.528687 
	C1482.868042,1766.735962 1483.752319,1760.884033 1485.069824,1755.129883 
	C1485.853760,1751.706543 1487.526123,1748.486084 1488.303589,1745.061890 
	C1491.359497,1731.602905 1493.592773,1717.923218 1497.318726,1704.659180 
	C1501.437988,1689.995117 1503.860107,1675.092041 1506.588623,1660.172607 
	C1508.434814,1650.077881 1509.165405,1639.173706 1517.383423,1630.687134 
	C1519.597900,1630.583008 1522.240479,1630.351074 1524.883057,1630.350220 
	C1590.540894,1630.330078 1656.199219,1630.456299 1721.855835,1630.173462 
	C1729.715942,1630.139526 1733.998657,1633.687500 1736.748047,1638.098999 
	C1734.306274,1645.341919 1732.008301,1651.041138 1730.489746,1656.941040 
	C1728.529175,1664.558472 1727.368774,1672.379517 1725.500488,1680.024170 
	C1724.729980,1683.176758 1722.548828,1685.989868 1721.814087,1689.144897 
	C1719.362183,1699.672729 1717.446045,1710.325562 1714.996948,1720.854126 
	C1712.780396,1730.382446 1709.889771,1739.755859 1707.742432,1749.297974 
	C1705.303345,1760.136475 1703.606812,1771.142944 1701.133179,1781.972656 
	C1698.510620,1793.454468 1695.102295,1804.757690 1692.520386,1816.247681 
	C1690.793335,1823.933472 1691.067993,1832.238159 1688.376343,1839.498169 
	C1684.380005,1850.276733 1682.286377,1861.402222 1679.699707,1872.457520 
	C1676.858398,1884.601318 1674.320679,1896.815674 1671.579102,1908.983276 
	C1668.997192,1920.442627 1665.533203,1931.774414 1663.967896,1943.366211 
	C1662.946533,1950.930176 1662.453247,1958.365479 1659.274170,1965.460205 
	C1657.613281,1969.166870 1662.207031,1980.217651 1666.140015,1981.600098 
	C1671.378296,1983.441406 1676.941162,1985.446655 1682.366455,1985.451416 
	C1695.265381,1985.462524 1708.163208,1983.814575 1721.065186,1983.764404 
	C1776.057007,1983.550293 1831.050171,1983.710571 1886.042603,1983.604736 
	C1890.639893,1983.595947 1895.376221,1983.149292 1899.795776,1981.964722 
	C1905.310425,1980.486572 1908.885376,1977.366699 1911.000244,1971.015869 
	C1914.308960,1961.079834 1912.912354,1949.873169 1919.362549,1940.874023 
	C1919.863647,1940.174683 1919.523560,1938.912598 1919.701050,1937.935059 
	C1921.994629,1925.305176 1923.018799,1912.260864 1926.940308,1900.156006 
	C1932.151001,1884.071777 1935.590088,1867.808594 1937.790039,1851.154053 
	C1938.391968,1846.597412 1938.183838,1841.162842 1940.632080,1837.788940 
	C1945.050293,1831.699951 1945.221191,1825.036499 1946.416016,1818.315430 
	C1948.143433,1808.598022 1949.107544,1798.504150 1952.572388,1789.398438 
	C1956.744385,1778.433594 1958.199097,1767.141968 1960.481323,1755.877075 
	C1962.740845,1744.725220 1963.725830,1733.240601 1969.205566,1722.803223 
	C1971.107178,1719.181641 1971.002686,1714.472046 1971.638184,1710.233032 
	C1972.029541,1707.621582 1971.726318,1704.869751 1972.359497,1702.337036 
	C1974.895264,1692.193359 1977.863403,1682.156128 1980.315063,1671.993530 
	C1983.093628,1660.475220 1985.386353,1648.840576 1988.087769,1637.302612 
	C1990.014771,1629.071411 1992.449341,1620.958252 1994.340210,1612.719604 
	C1999.254517,1591.306641 2004.016602,1569.858643 2008.788208,1548.413330 
	C2010.137939,1542.347290 2011.161255,1536.206299 2012.597778,1530.162231 
	C2015.771362,1516.809326 2018.939331,1503.450439 2022.439575,1490.181152 
	C2025.278687,1479.417847 2025.067017,1467.997681 2030.280151,1457.687012 
	C2032.440918,1453.413086 2032.735352,1448.150757 2033.634521,1443.292725 
	C2035.671021,1432.288818 2037.083862,1421.144897 2039.663696,1410.274658 
	C2041.475464,1402.640381 2046.196411,1395.536133 2047.138062,1387.889771 
	C2048.953613,1373.148071 2052.446289,1358.895630 2056.132080,1344.600464 
	C2057.774658,1338.229370 2058.216064,1331.553589 2059.768066,1325.153320 
	C2063.158447,1311.171021 2067.068115,1297.314209 2070.436035,1283.326782 
	C2071.741699,1277.904541 2071.800049,1272.185669 2073.055176,1266.746948 
	C2075.197266,1257.465820 2077.844971,1248.301880 2080.260986,1239.083618 
	C2081.668701,1233.712280 2083.260742,1228.376709 2084.375977,1222.944214 
	C2086.229736,1213.914185 2087.430664,1204.741089 2089.513672,1195.769409 
	C2092.857178,1181.367676 2096.792236,1167.104370 2100.294189,1152.737915 
	C2102.920410,1141.963989 2105.209717,1131.108398 2107.735840,1120.309448 
	C2111.790527,1102.977173 2116.076660,1085.697632 2119.965332,1068.328613 
	C2123.288330,1053.486694 2126.359619,1038.582031 2129.133789,1023.629333 
	C2129.677246,1020.700195 2128.839600,1017.244019 2127.779297,1014.345459 
	C2125.681152,1008.609924 2120.423584,1009.678345 2115.840088,1009.677612 
	C2041.183472,1009.664917 1966.526733,1009.667542 1891.870117,1009.671326 
	C1889.871216,1009.671387 1887.660645,1009.191345 1885.926270,1009.882385 
	C1883.698242,1010.770264 1880.789917,1012.198547 1880.029785,1014.125732 
	C1877.060791,1021.653625 1874.245728,1029.338013 1872.446411,1037.209473 
	C1869.598877,1049.666016 1867.666748,1062.329712 1865.235840,1074.884155 
	C1864.369141,1079.360107 1863.510498,1083.886719 1862.043579,1088.183716 
	C1860.475464,1092.776855 1857.816406,1097.002319 1856.302124,1101.608032 
	C1853.166016,1111.146484 1850.505371,1120.840576 1847.579590,1130.449463 
	C1846.621338,1133.596436 1844.968628,1136.600830 1844.453979,1139.802368 
	C1841.702881,1156.917236 1839.395630,1174.106812 1833.671021,1190.595947 
	C1832.707031,1193.372803 1832.278931,1196.342041 1831.678833,1199.237915 
	C1829.622681,1209.158936 1828.713623,1219.493530 1825.277100,1228.907471 
	C1821.166870,1240.166626 1819.941406,1251.799316 1817.658325,1263.316040 
	C1815.690796,1273.241333 1814.841431,1283.608398 1811.273193,1292.928467 
	C1808.285522,1300.731934 1806.629272,1308.475830 1805.314087,1318.303711 
M1206.845459,1474.322876 
	C1212.159546,1474.322876 1217.473633,1474.322876 1223.879028,1474.322876 
	C1225.362915,1470.404785 1227.146973,1466.624146 1228.202881,1462.650024 
	C1229.306519,1458.496338 1229.729858,1454.159668 1230.414307,1449.897339 
	C1231.356323,1444.029663 1230.901245,1437.430054 1233.542236,1432.475220 
	C1236.641968,1426.659668 1237.375977,1420.827393 1238.409424,1414.724976 
	C1240.094482,1404.775757 1240.861084,1394.375000 1244.474609,1385.125610 
	C1248.709961,1374.283936 1249.938599,1363.043457 1252.159546,1351.946167 
	C1253.787231,1343.812988 1255.762817,1336.109375 1261.035400,1329.547852 
	C1258.080933,1323.903076 1253.007324,1323.593018 1247.461548,1323.612305 
	C1214.236450,1323.727905 1181.010620,1323.669556 1147.785034,1323.669678 
	C1061.473145,1323.670044 975.161194,1323.670654 888.849243,1323.670898 
	C851.858398,1323.670898 814.867554,1323.639526 777.876770,1323.689209 
	C767.414490,1323.703369 766.202393,1326.010864 771.382141,1335.442383 
	C772.018738,1336.601685 772.490845,1337.880493 773.278076,1338.923584 
	C784.526062,1353.827881 795.861023,1368.666504 807.079285,1383.593018 
	C815.526794,1394.832886 823.608887,1406.354126 832.263367,1417.430054 
	C844.474548,1433.057861 854.338684,1450.479980 868.326660,1464.713379 
	C869.960815,1466.376099 872.871460,1467.059814 875.321838,1467.592285 
	C882.033508,1469.050781 889.161560,1469.291260 895.461731,1471.728271 
	C900.663879,1473.740601 905.636169,1474.333496 910.950623,1474.333008 
	C1008.926331,1474.323853 1106.901978,1474.324097 1206.845459,1474.322876 
M1119.000122,1533.662964 
	C1083.363525,1533.664917 1047.727051,1533.692017 1012.090515,1533.641235 
	C1006.821777,1533.633789 1001.710876,1534.449219 999.170166,1539.430664 
	C996.621277,1544.427856 999.216675,1549.253174 1002.132690,1553.293823 
	C1012.702576,1567.940552 1023.472351,1582.444214 1034.265259,1596.928589 
	C1042.827759,1608.419678 1051.505981,1619.824951 1060.185669,1631.228149 
	C1067.973877,1641.460083 1075.819824,1651.648193 1083.668335,1661.834106 
	C1088.254272,1667.785889 1092.833984,1673.744629 1097.539429,1679.601562 
	C1099.661011,1682.242554 1102.222168,1683.788818 1106.023682,1683.760132 
	C1129.658936,1683.581543 1153.296143,1683.670166 1176.520386,1683.670166 
	C1181.561279,1678.523682 1183.037231,1672.715942 1184.126831,1666.267090 
	C1186.264404,1653.616333 1189.567749,1641.165283 1192.259033,1628.603760 
	C1193.156738,1624.414551 1192.549683,1619.485596 1194.580322,1616.045898 
	C1198.442749,1609.503418 1198.840942,1602.343140 1200.252563,1595.367798 
	C1203.457520,1579.530029 1206.106201,1563.578735 1209.388306,1547.758057 
	C1210.942749,1540.265381 1207.651978,1534.740967 1199.925049,1533.841797 
	C1197.292114,1533.535400 1194.603271,1533.669922 1191.940063,1533.668701 
	C1168.293457,1533.658325 1144.646851,1533.662720 1119.000122,1533.662964 
z"/>
<path fill="#FD0000" opacity="1.000000" stroke="none" 
	d="
M1805.451660,1317.430298 
	C1806.629272,1308.475830 1808.285522,1300.731934 1811.273193,1292.928467 
	C1814.841431,1283.608398 1815.690796,1273.241333 1817.658325,1263.316040 
	C1819.941406,1251.799316 1821.166870,1240.166626 1825.277100,1228.907471 
	C1828.713623,1219.493530 1829.622681,1209.158936 1831.678833,1199.237915 
	C1832.278931,1196.342041 1832.707031,1193.372803 1833.671021,1190.595947 
	C1839.395630,1174.106812 1841.702881,1156.917236 1844.453979,1139.802368 
	C1844.968628,1136.600830 1846.621338,1133.596436 1847.579590,1130.449463 
	C1850.505371,1120.840576 1853.166016,1111.146484 1856.302124,1101.608032 
	C1857.816406,1097.002319 1860.475464,1092.776855 1862.043579,1088.183716 
	C1863.510498,1083.886719 1864.369141,1079.360107 1865.235840,1074.884155 
	C1867.666748,1062.329712 1869.598877,1049.666016 1872.446411,1037.209473 
	C1874.245728,1029.338013 1877.060791,1021.653625 1880.029785,1014.125732 
	C1880.789917,1012.198547 1883.698242,1010.770264 1885.926270,1009.882385 
	C1887.660645,1009.191345 1889.871216,1009.671387 1891.870117,1009.671326 
	C1966.526733,1009.667542 2041.183472,1009.664917 2115.840088,1009.677612 
	C2120.423584,1009.678345 2125.681152,1008.609924 2127.779297,1014.345459 
	C2128.839600,1017.244019 2129.677246,1020.700195 2129.133789,1023.629333 
	C2126.359619,1038.582031 2123.288330,1053.486694 2119.965332,1068.328613 
	C2116.076660,1085.697632 2111.790527,1102.977173 2107.735840,1120.309448 
	C2105.209717,1131.108398 2102.920410,1141.963989 2100.294189,1152.737915 
	C2096.792236,1167.104370 2092.857178,1181.367676 2089.513672,1195.769409 
	C2087.430664,1204.741089 2086.229736,1213.914185 2084.375977,1222.944214 
	C2083.260742,1228.376709 2081.668701,1233.712280 2080.260986,1239.083618 
	C2077.844971,1248.301880 2075.197266,1257.465820 2073.055176,1266.746948 
	C2071.800049,1272.185669 2071.741699,1277.904541 2070.436035,1283.326782 
	C2067.068115,1297.314209 2063.158447,1311.171021 2059.768066,1325.153320 
	C2058.216064,1331.553589 2057.774658,1338.229370 2056.132080,1344.600464 
	C2052.446289,1358.895630 2048.953613,1373.148071 2047.138062,1387.889771 
	C2046.196411,1395.536133 2041.475464,1402.640381 2039.663696,1410.274658 
	C2037.083862,1421.144897 2035.671021,1432.288818 2033.634521,1443.292725 
	C2032.735352,1448.150757 2032.440918,1453.413086 2030.280151,1457.687012 
	C2025.067017,1467.997681 2025.278687,1479.417847 2022.439575,1490.181152 
	C2018.939331,1503.450439 2015.771362,1516.809326 2012.597778,1530.162231 
	C2011.161255,1536.206299 2010.137939,1542.347290 2008.788208,1548.413330 
	C2004.016602,1569.858643 1999.254517,1591.306641 1994.340210,1612.719604 
	C1992.449341,1620.958252 1990.014771,1629.071411 1988.087769,1637.302612 
	C1985.386353,1648.840576 1983.093628,1660.475220 1980.315063,1671.993530 
	C1977.863403,1682.156128 1974.895264,1692.193359 1972.359497,1702.337036 
	C1971.726318,1704.869751 1972.029541,1707.621582 1971.638184,1710.233032 
	C1971.002686,1714.472046 1971.107178,1719.181641 1969.205566,1722.803223 
	C1963.725830,1733.240601 1962.740845,1744.725220 1960.481323,1755.877075 
	C1958.199097,1767.141968 1956.744385,1778.433594 1952.572388,1789.398438 
	C1949.107544,1798.504150 1948.143433,1808.598022 1946.416016,1818.315430 
	C1945.221191,1825.036499 1945.050293,1831.699951 1940.632080,1837.788940 
	C1938.183838,1841.162842 1938.391968,1846.597412 1937.790039,1851.154053 
	C1935.590088,1867.808594 1932.151001,1884.071777 1926.940308,1900.156006 
	C1923.018799,1912.260864 1921.994629,1925.305176 1919.701050,1937.935059 
	C1919.523560,1938.912598 1919.863647,1940.174683 1919.362549,1940.874023 
	C1912.912354,1949.873169 1914.308960,1961.079834 1911.000244,1971.015869 
	C1908.885376,1977.366699 1905.310425,1980.486572 1899.795776,1981.964722 
	C1895.376221,1983.149292 1890.639893,1983.595947 1886.042603,1983.604736 
	C1831.050171,1983.710571 1776.057007,1983.550293 1721.065186,1983.764404 
	C1708.163208,1983.814575 1695.265381,1985.462524 1682.366455,1985.451416 
	C1676.941162,1985.446655 1671.378296,1983.441406 1666.140015,1981.600098 
	C1662.207031,1980.217651 1657.613281,1969.166870 1659.274170,1965.460205 
	C1662.453247,1958.365479 1662.946533,1950.930176 1663.967896,1943.366211 
	C1665.533203,1931.774414 1668.997192,1920.442627 1671.579102,1908.983276 
	C1674.320679,1896.815674 1676.858398,1884.601318 1679.699707,1872.457520 
	C1682.286377,1861.402222 1684.380005,1850.276733 1688.376343,1839.498169 
	C1691.067993,1832.238159 1690.793335,1823.933472 1692.520386,1816.247681 
	C1695.102295,1804.757690 1698.510620,1793.454468 1701.133179,1781.972656 
	C1703.606812,1771.142944 1705.303345,1760.136475 1707.742432,1749.297974 
	C1709.889771,1739.755859 1712.780396,1730.382446 1714.996948,1720.854126 
	C1717.446045,1710.325562 1719.362183,1699.672729 1721.814087,1689.144897 
	C1722.548828,1685.989868 1724.729980,1683.176758 1725.500488,1680.024170 
	C1727.368774,1672.379517 1728.529175,1664.558472 1730.489746,1656.941040 
	C1732.008301,1651.041138 1734.306274,1645.341919 1736.748047,1638.098999 
	C1733.998657,1633.687500 1729.715942,1630.139526 1721.855835,1630.173462 
	C1656.199219,1630.456299 1590.540894,1630.330078 1524.883057,1630.350220 
	C1522.240479,1630.351074 1519.597900,1630.583008 1517.383423,1630.687134 
	C1509.165405,1639.173706 1508.434814,1650.077881 1506.588623,1660.172607 
	C1503.860107,1675.092041 1501.437988,1689.995117 1497.318726,1704.659180 
	C1493.592773,1717.923218 1491.359497,1731.602905 1488.303589,1745.061890 
	C1487.526123,1748.486084 1485.853760,1751.706543 1485.069824,1755.129883 
	C1483.752319,1760.884033 1482.868042,1766.735962 1481.711426,1772.528687 
	C1479.211426,1785.050049 1477.948975,1798.009399 1473.800293,1809.963623 
	C1468.344849,1825.683105 1466.952271,1841.997681 1463.639282,1858.018311 
	C1463.505005,1858.667358 1463.703247,1859.510010 1463.357788,1859.972168 
	C1455.999634,1869.816772 1456.899780,1882.508057 1451.900879,1893.161133 
	C1451.492432,1894.031372 1451.822021,1895.284058 1451.343994,1896.079956 
	C1443.494019,1909.149658 1442.261230,1923.904053 1440.046753,1938.491577 
	C1439.238281,1943.817871 1436.232910,1948.773560 1434.889526,1954.065796 
	C1433.441284,1959.770996 1432.866699,1965.692383 1431.724365,1971.482666 
	C1430.595825,1977.203003 1430.399048,1983.558472 1427.597290,1988.351318 
	C1425.448120,1992.027588 1420.149048,1994.411865 1415.759155,1996.065063 
	C1411.859497,1997.533691 1407.283936,1997.607178 1403.005859,1997.612427 
	C1333.682007,1997.697266 1264.357300,1997.537598 1195.034790,1997.857788 
	C1187.121094,1997.894287 1181.285645,1994.319580 1174.687622,1990.608643 
	C1174.090210,1981.010254 1173.383545,1971.305298 1180.720947,1962.787354 
	C1182.478516,1960.747070 1181.293091,1956.338013 1181.878296,1953.093506 
	C1184.624634,1937.866699 1187.511108,1922.665039 1190.366333,1907.457886 
	C1190.607422,1906.173828 1190.603516,1904.590820 1191.361816,1903.696167 
	C1198.728760,1895.002197 1197.196655,1883.853638 1199.420410,1873.825195 
	C1200.895874,1867.171875 1202.482666,1860.797363 1205.032104,1854.419434 
	C1207.288208,1848.775513 1207.195923,1842.218994 1208.360352,1836.107300 
	C1210.749023,1823.568359 1211.805298,1810.519165 1216.118286,1798.665405 
	C1222.107544,1782.204346 1222.026123,1764.401123 1228.224243,1748.408081 
	C1234.144409,1733.132690 1234.374023,1717.042725 1238.616943,1701.712524 
	C1240.482666,1694.971802 1241.386841,1687.976440 1244.677368,1681.314209 
	C1248.198608,1674.184937 1249.447266,1665.522583 1249.981812,1657.416748 
	C1251.015137,1641.750000 1257.444458,1627.431641 1259.982422,1612.182861 
	C1261.864746,1600.873535 1264.098267,1589.616333 1266.478394,1578.400146 
	C1267.285645,1574.596313 1269.346436,1571.068604 1270.267212,1567.276855 
	C1272.842041,1556.673584 1275.158691,1546.006592 1277.508057,1535.349487 
	C1282.189453,1514.113403 1286.711304,1492.841064 1291.533447,1471.637085 
	C1293.501709,1462.982544 1296.318726,1454.522217 1298.330322,1445.875977 
	C1302.571289,1427.648071 1306.568970,1409.363037 1310.584351,1391.083496 
	C1311.363159,1387.538452 1311.637085,1383.884277 1312.372925,1380.327759 
	C1314.028076,1372.328613 1315.412231,1364.527832 1319.267090,1356.831543 
	C1322.953369,1349.471558 1322.383911,1340.074219 1324.302612,1331.714111 
	C1327.826050,1316.360840 1332.105103,1301.177734 1335.466187,1285.791992 
	C1337.195068,1277.877930 1337.624512,1269.679932 1338.803101,1260.323486 
	C1333.093018,1260.323486 1328.845703,1260.323608 1324.598389,1260.323608 
	C1112.960205,1260.326172 901.321899,1260.418823 689.684143,1260.123169 
	C675.935608,1260.104004 662.178589,1257.195190 648.457947,1255.384766 
	C646.272095,1255.096313 644.208801,1253.595093 642.178711,1252.489624 
	C640.140686,1251.379883 638.353638,1249.375244 636.218506,1248.945312 
	C616.785156,1245.032959 611.284302,1227.013428 600.725403,1214.165283 
	C594.466675,1206.549805 588.393799,1198.771118 582.490112,1190.876831 
	C576.146423,1182.394165 570.163574,1173.642700 563.906555,1165.093872 
	C554.562561,1152.327515 545.128540,1139.626831 535.703979,1126.919556 
	C533.724670,1124.250854 531.386658,1121.822876 529.616028,1119.029175 
	C523.122009,1108.782715 515.541199,1099.406372 507.900299,1089.998901 
	C500.646667,1081.068359 494.708771,1071.076660 488.028748,1061.667847 
	C486.161591,1059.038086 482.961365,1057.155518 481.705109,1054.336426 
	C479.631256,1049.682495 476.542450,1043.978760 477.685883,1039.744995 
	C479.403076,1033.386597 486.597351,1034.305542 492.301849,1034.307739 
	C571.619507,1034.337158 650.937195,1034.329834 730.254822,1034.329712 
	C1002.883240,1034.329102 1275.511597,1034.339844 1548.140015,1034.250610 
	C1554.372314,1034.248535 1560.598511,1033.039795 1566.839111,1032.537231 
	C1569.820923,1032.297241 1572.938965,1031.849243 1575.808350,1032.425781 
	C1593.955933,1036.072510 1612.279419,1033.748413 1630.510254,1034.275024 
	C1643.425537,1034.647949 1646.645874,1039.167969 1642.811768,1051.924438 
	C1641.685547,1055.671265 1641.623779,1059.724976 1640.715942,1063.553223 
	C1639.059448,1070.538696 1637.013428,1077.431763 1635.352173,1084.416138 
	C1632.922974,1094.630127 1630.841309,1104.928589 1628.304565,1115.114624 
	C1627.145142,1119.770874 1624.710815,1124.138672 1623.795288,1128.821167 
	C1621.023315,1142.996460 1618.758179,1157.270264 1616.184937,1171.485596 
	C1615.597412,1174.730469 1615.510254,1178.765503 1613.535034,1180.909912 
	C1609.728027,1185.043213 1610.011475,1189.949463 1608.944458,1194.658325 
	C1605.306641,1210.711304 1601.562500,1226.741211 1598.057251,1242.823120 
	C1595.124268,1256.279419 1592.566650,1269.817749 1589.628784,1283.272949 
	C1588.809937,1287.022827 1587.028076,1290.553223 1586.048950,1294.279297 
	C1584.642334,1299.631226 1583.214355,1305.018799 1582.418091,1310.481812 
	C1580.295410,1325.043457 1576.454346,1339.125610 1572.281494,1353.219604 
	C1569.705933,1361.918701 1568.824585,1371.234741 1568.203003,1380.343262 
	C1567.936646,1384.247803 1570.597656,1387.954102 1575.793579,1387.661377 
	C1577.122070,1387.586548 1578.459106,1387.669800 1579.792236,1387.669800 
	C1647.116577,1387.668213 1714.440796,1387.667847 1781.765137,1387.651733 
	C1783.747437,1387.651245 1785.729614,1387.483398 1788.948120,1387.337524 
	C1790.647095,1380.971436 1792.521362,1374.469360 1794.101807,1367.896729 
	C1796.153442,1359.364014 1796.262939,1350.536743 1800.992065,1342.425903 
	C1803.601196,1337.950806 1802.833740,1331.530518 1803.698120,1326.004395 
	C1804.102905,1323.416504 1804.767334,1320.869385 1805.451660,1317.430298 
z"/>
<path fill="#FE0000" opacity="1.000000" stroke="none" 
	d="
M1205.861572,1474.322632 
	C1106.901978,1474.324097 1008.926331,1474.323853 910.950623,1474.333008 
	C905.636169,1474.333496 900.663879,1473.740601 895.461731,1471.728271 
	C889.161560,1469.291260 882.033508,1469.050781 875.321838,1467.592285 
	C872.871460,1467.059814 869.960815,1466.376099 868.326660,1464.713379 
	C854.338684,1450.479980 844.474548,1433.057861 832.263367,1417.430054 
	C823.608887,1406.354126 815.526794,1394.832886 807.079285,1383.593018 
	C795.861023,1368.666504 784.526062,1353.827881 773.278076,1338.923584 
	C772.490845,1337.880493 772.018738,1336.601685 771.382141,1335.442383 
	C766.202393,1326.010864 767.414490,1323.703369 777.876770,1323.689209 
	C814.867554,1323.639526 851.858398,1323.670898 888.849243,1323.670898 
	C975.161194,1323.670654 1061.473145,1323.670044 1147.785034,1323.669678 
	C1181.010620,1323.669556 1214.236450,1323.727905 1247.461548,1323.612305 
	C1253.007324,1323.593018 1258.080933,1323.903076 1261.035400,1329.547852 
	C1255.762817,1336.109375 1253.787231,1343.812988 1252.159546,1351.946167 
	C1249.938599,1363.043457 1248.709961,1374.283936 1244.474609,1385.125610 
	C1240.861084,1394.375000 1240.094482,1404.775757 1238.409424,1414.724976 
	C1237.375977,1420.827393 1236.641968,1426.659668 1233.542236,1432.475220 
	C1230.901245,1437.430054 1231.356323,1444.029663 1230.414307,1449.897339 
	C1229.729858,1454.159668 1229.306519,1458.496338 1228.202881,1462.650024 
	C1227.146973,1466.624146 1225.362915,1470.404785 1223.879028,1474.322876 
	C1217.473633,1474.322876 1212.159546,1474.322876 1205.861572,1474.322632 
z"/>
<path fill="#FC0000" opacity="1.000000" stroke="none" 
	d="
M1120.000244,1533.662842 
	C1144.646851,1533.662720 1168.293457,1533.658325 1191.940063,1533.668701 
	C1194.603271,1533.669922 1197.292114,1533.535400 1199.925049,1533.841797 
	C1207.651978,1534.740967 1210.942749,1540.265381 1209.388306,1547.758057 
	C1206.106201,1563.578735 1203.457520,1579.530029 1200.252563,1595.367798 
	C1198.840942,1602.343140 1198.442749,1609.503418 1194.580322,1616.045898 
	C1192.549683,1619.485596 1193.156738,1624.414551 1192.259033,1628.603760 
	C1189.567749,1641.165283 1186.264404,1653.616333 1184.126831,1666.267090 
	C1183.037231,1672.715942 1181.561279,1678.523682 1176.520386,1683.670166 
	C1153.296143,1683.670166 1129.658936,1683.581543 1106.023682,1683.760132 
	C1102.222168,1683.788818 1099.661011,1682.242554 1097.539429,1679.601562 
	C1092.833984,1673.744629 1088.254272,1667.785889 1083.668335,1661.834106 
	C1075.819824,1651.648193 1067.973877,1641.460083 1060.185669,1631.228149 
	C1051.505981,1619.824951 1042.827759,1608.419678 1034.265259,1596.928589 
	C1023.472351,1582.444214 1012.702576,1567.940552 1002.132690,1553.293823 
	C999.216675,1549.253174 996.621277,1544.427856 999.170166,1539.430664 
	C1001.710876,1534.449219 1006.821777,1533.633789 1012.090515,1533.641235 
	C1047.727051,1533.692017 1083.363525,1533.664917 1120.000244,1533.662842 
z"/>
</svg>